<?xml version="1.0" ?><svg id="Layer_1" style="enable-background:new 0 0 128 128;" version="1.1" viewBox="0 0 128 128" xml:space="preserve" xmlns="http://www.w3.org/2000/svg" xmlns:xlink="http://www.w3.org/1999/xlink"><style type="text/css">
	.st0{fill-rule:evenodd;clip-rule:evenodd;}
	.st1{fill-rule:evenodd;clip-rule:evenodd;fill:#7ACED7;}
</style><path class="st0" d="M54.3,72.2h-16c-1.7,0-3.1-1-3.7-2.6c-0.6-1.6-0.2-3.3,1-4.4l70.3-64.2c1.5-1.3,3.7-1.4,5.2-0.1  c1.5,1.3,1.9,3.4,0.9,5.1l-27,45.2H101c1.7,0,3.1,1,3.7,2.5c0.6,1.5,0.3,3.2-0.9,4.4l-71.8,68.8c-1.4,1.4-3.7,1.5-5.2,0.3  c-1.6-1.2-2-3.4-1-5.1L54.3,72.2L54.3,72.2z M57.8,74.2L29.1,124L101,55.2H85.1c-1.5,0-2.7-0.7-3.5-2c-0.7-1.3-0.7-2.8,0-4l27-45.2  L38.3,68.2h16c1.5,0,2.7,0.7,3.5,2C58.5,71.5,58.5,72.9,57.8,74.2z" id="XMLID_6_"/><path class="st1" d="M57.8,74.2L29.1,124L101,55.2H85.1c-1.5,0-2.7-0.7-3.5-2c-0.7-1.3-0.7-2.8,0-4l27-45.2L38.3,68.2  h16c1.5,0,2.7,0.7,3.5,2C58.5,71.5,58.5,72.9,57.8,74.2z" id="XMLID_1_"/></svg>